<svg width="514" height="596" viewBox="0 0 514 596" fill="none" xmlns="http://www.w3.org/2000/svg">
<path d="M90.4574 438.674C14.4944 481.449 57.2697 586.913 82.3448 591.338C101.658 594.746 165.149 592.792 195.921 591.338L434.134 415.074L294.745 395.899C251.97 395.899 151.228 404.454 90.4574 438.674Z" fill="white"/>
<path d="M195.921 591.338C194.822 591.393 197.111 591.281 195.921 591.338ZM195.921 591.338C165.149 592.792 101.658 594.746 82.3448 591.338C57.2697 586.913 14.4944 481.449 90.4574 438.674C151.228 404.454 251.97 395.899 294.745 395.899L434.134 415.074L195.921 591.338Z" stroke="black" stroke-width="2.91102"/>
<path d="M111.106 453.152C163.616 443.122 206.244 473.965 220.994 490.64C223.458 487.195 226.122 483.789 228.998 480.44C224.464 460.527 136.181 439.14 111.106 453.152Z" fill="#000001"/>
<path d="M190.596 593.52C192.46 593.439 194.239 593.358 195.92 593.278L390.486 449.312C381.915 446.413 359.823 437.494 340.029 425.009C205.733 440.923 184.451 543.981 190.596 593.52Z" fill="#0E1729"/>
<path d="M412.745 593.277C509.357 562.302 434.132 422.176 434.132 417.014L397.994 412.042C213.913 423.405 186.576 537.6 195.918 593.277L226.984 849.191H307.037L313.919 593.277H412.745Z" fill="white" stroke="black" stroke-width="2.91102"/>
<path d="M294.745 540.178C306.545 551.978 312.446 580.495 313.921 593.278H324.983C322.033 578.774 311.855 547.848 294.745 540.178Z" fill="#000001"/>
<path d="M309.714 146.088C305.83 141.143 295.73 125.958 286.407 104.77C288.526 102.297 292.551 94.8104 291.704 84.6398C280.686 82.9447 274.009 59.2134 272.048 47.5596C286.679 39.4435 274.212 17.7929 278.991 16.8366C284.288 15.7766 298.061 21.0738 298.061 34.8464C298.061 48.619 321.657 42.118 327.725 39.0841C342.556 31.6681 337.26 49.6796 330.903 66.63C327.513 72.5628 339.378 83.9341 345.735 88.8781C347.429 105.829 332.315 131.962 324.546 142.909C325.606 174.692 325.818 238.258 318.19 238.258C313.105 228.088 310.421 172.573 309.714 146.088Z" fill="white" stroke="black" stroke-width="1.94068"/>
<path d="M300.177 49.6725C298.411 51.4383 295.939 56.4529 300.177 62.3858" stroke="#241715" stroke-width="0.970341"/>
<path d="M308.652 65.5718C307.946 69.4564 304.838 75.3186 298.058 67.6907" stroke="#241715" stroke-width="0.970341"/>
<path d="M331.96 52.8538C333.372 48.9692 335.138 41.4119 330.9 42.2594" stroke="#241715" stroke-width="0.970341"/>
<path d="M290.572 96.2916C291.506 93.0569 292.075 89.1066 291.702 84.6383C297.573 87.817 307.592 88.8765 328.781 74.0435C329.627 85.0616 303.661 93.4664 290.572 96.2916Z" fill="black"/>
<path d="M344.674 16.8356C352.09 34.846 335.139 59.213 330.901 66.629C337.258 49.6786 341.495 31.6671 327.723 39.0832C321.75 42.2994 298.059 48.6181 298.059 34.8454C298.059 21.0728 284.286 15.7756 278.989 16.8356C274.21 17.7919 286.677 39.4426 272.047 47.5587C270.46 48.4386 268.556 49.1594 266.276 49.6775C271.573 42.2615 269.454 43.3209 265.216 25.3105C260.979 7.30016 280.049 3.06296 298.059 0.944096C316.069 -1.17477 337.258 -1.17477 344.674 16.8356Z" fill="black"/>
<path d="M444.26 131.256C430.699 113.457 372.924 95.5883 345.732 88.8785C347.427 105.829 332.313 131.962 324.544 142.91C325.604 174.693 325.815 238.259 318.188 238.259C313.102 228.088 310.418 172.574 309.712 146.088C305.827 141.144 295.728 125.959 286.405 104.77C284.286 111.127 227.076 154.563 217.541 168.336C208.006 182.109 204.828 314.538 204.828 326.192C204.828 337.846 200.59 417.303 235.552 417.303C263.521 417.303 377.869 421.188 435.784 422.6C444.26 332.901 457.82 149.054 444.26 131.256Z" fill="black"/>
<path d="M204.831 326.185C262.747 314.178 378.578 300.971 378.578 344.196C378.578 387.42 324.9 411.849 298.061 418.659M378.578 98.3068C371.515 101.518 356.542 116.629 353.152 151.379C348.914 194.815 335.311 209.647 324.291 209.647M313.477 211.766C304.454 216.71 284.712 220.454 277.932 195.875C269.457 165.151 251.774 148.2 232.011 153.497M410.361 110.061C408.242 109.165 374.341 132.309 371.162 185.28C367.984 238.252 334.082 337.839 264.159 284.867C237.672 258.381 212.151 241.784 207.865 243.549M286.408 418.339C295.942 409.163 312.47 387.844 302.299 375.979C292.128 364.113 236.497 380.216 209.953 389.751M449.348 158.795C426.464 172.92 384.299 217.911 398.708 284.867C411.421 323.007 434.653 319.122 444.68 312.413M440.847 364.325C427.153 364.505 401.038 376.254 406.124 421.805" stroke="white" stroke-width="0.970341"/>
<path d="M318.188 417.293V239.308" stroke="#027269" stroke-width="0.970341"/>
<path d="M318.824 415.56L313.617 376.847C301.777 378.995 277.119 381.076 258.071 382.881C238.13 384.771 233.105 395.241 246.49 398.585C239.489 397.711 231.65 407.364 242.822 411.686C234.627 414.597 250.836 417.845 258.782 417.861C254.234 418.548 246.349 419.815 247.421 424.634C248.493 429.452 295.469 420.592 318.824 415.56Z" fill="white"/>
<path d="M318.824 415.561L313.617 376.848C310.863 377.348 307.415 377.844 303.505 378.334L291.66 420.952C301.612 419.142 311.409 417.159 318.824 415.561Z" fill="black"/>
<path d="M259.106 418.146L275.58 413.509" stroke="black" stroke-width="0.970341"/>
<path d="M246.596 407.801L275.476 404.295" stroke="black" stroke-width="0.970341"/>
<path d="M246.491 398.584L275.988 393.482" stroke="black" stroke-width="0.970341"/>
<path d="M475.692 381.565C478.255 340.991 481.054 136.522 435.286 125.5C382.382 112.759 383.076 307.755 406.043 352.24L298.016 363.222L308.152 430.623C360.673 426.955 471.449 448.703 475.692 381.565Z" fill="black"/>
<path d="M435.285 125.499C382.382 112.759 383.075 307.754 406.043 352.24L298.015 363.222" stroke="white" stroke-width="0.970341"/>
<path d="M457.322 154.883C440.975 156.661 404.645 166.099 395.733 188.221M467.493 190.481C452.761 196.925 418.271 218.617 413.92 240.885C409.57 263.152 455.646 255.634 474.274 251.505M475.404 290.493C459.92 297.722 405.644 302.52 393.473 285.973M475.968 359.993C460.111 350.37 414.46 331.161 402.514 338.522M359.571 356.603C352.79 371.294 363.409 425.315 393.473 431.189" stroke="white" stroke-width="0.970341"/>
<path d="M12.3235 279.458H194.26C197.447 279.458 200.311 281.407 201.481 284.372L255.515 421.342C256.685 424.307 259.548 426.256 262.736 426.256H404.251C406.854 426.256 408.964 428.366 408.964 430.969C408.964 433.573 406.854 435.683 404.251 435.683H68.1181C64.9355 435.683 62.0753 433.74 60.9021 430.782L5.10748 290.082C3.0867 284.986 6.84155 279.458 12.3235 279.458Z" fill="white" stroke="black" stroke-width="2.91102"/>
<path d="M200.651 282.129L260.502 426.256H256.46C253.326 426.256 250.499 424.371 249.294 421.477L192.65 285.456C191.462 282.603 193.559 279.458 196.65 279.458C198.401 279.458 199.98 280.512 200.651 282.129Z" fill="black"/>
<path d="M60.9021 430.782L5.10748 290.082C3.08667 284.986 6.84155 279.458 12.3235 279.458H26.3518C27.5066 279.458 28.6434 279.716 29.6923 280.199C34.6578 282.486 42.954 286.082 56.7308 293.043C102.822 316.331 108.644 365.818 98.9406 390.077C91.074 409.743 195.053 430.071 235.905 435.683H68.1181C64.9355 435.683 62.0753 433.74 60.9021 430.782Z" fill="black"/>
<ellipse cx="11.5736" cy="13.3097" rx="11.5736" ry="13.3097" transform="matrix(-0.936312 0.351169 0.351169 0.936312 129.862 327.975)" fill="black"/>
</svg>
